<svg xmlns="http://www.w3.org/2000/svg" width="512" height="512" viewBox="0 0 512 512" role="img" aria-labelledby="title desc">
<title id="title">Level Up Athletics — Elite badge</title>
<desc id="desc">Elite rank insignia. Flat #A947F5 symbol on a black shield with a cream inset border. Transparent surroundings.</desc>
<path fill="#141414" d="M256 24 462 94V332L256 484 50 332V94Z"/>
<path fill="#FFF6DF" d="M256 42 446 106V324L256 464 66 324V106Z"/>
<path fill="#141414" d="M256 60 430 118V316L256 444 82 316V118Z"/>
<g fill="#A947F5"><path d="M185 154H235L208 216H137ZM252 154H271L300 216H225ZM288 154H337L385 216H317ZM140 233H208L242 349ZM225 233H300L256 373ZM317 233H382L272 350Z"/></g>
</svg>